<?xml version="1.0" standalone="no"?>
<!DOCTYPE svg PUBLIC "-//W3C//DTD SVG 20010904//EN"
 "http://www.w3.org/TR/2001/REC-SVG-20010904/DTD/svg10.dtd">
<svg version="1.0" xmlns="http://www.w3.org/2000/svg"
 width="1280.000000pt" height="1280.000000pt" viewBox="0 0 1280.000000 1280.000000"
 preserveAspectRatio="xMidYMid meet">
<metadata>
Created by potrace 1.14, written by Peter Selinger 2001-2017
</metadata>
<g transform="translate(0.000000,1280.000000) scale(0.100000,-0.100000)"
fill="#000000" stroke="none">
<path d="M1256 10562 c-3 -3 -34 -6 -69 -8 -94 -3 -249 -34 -332 -67 -16 -6
-35 -12 -41 -13 -6 -1 -49 -20 -95 -43 -226 -112 -403 -276 -546 -506 -66
-104 -142 -321 -160 -456 -10 -71 -10 -6071 0 -6129 4 -25 9 -56 11 -71 5 -38
48 -183 58 -193 4 -6 8 -20 8 -33 0 -13 5 -23 10 -23 6 0 10 -6 10 -14 0 -19
52 -116 101 -189 21 -33 39 -61 39 -62 0 -21 249 -265 269 -265 4 0 16 -9 26
-20 10 -11 23 -20 28 -20 6 0 18 -6 26 -14 28 -25 196 -104 278 -130 131 -42
196 -55 309 -60 33 -2 65 -5 70 -9 6 -3 16 -2 24 3 8 5 22 5 32 -1 12 -6 18
-6 18 0 0 7 9 7 25 1 15 -6 25 -6 25 0 0 5 12 5 28 1 15 -4 39 -4 55 0 15 4
27 3 27 -1 0 -5 13 -5 30 0 16 5 32 5 34 1 6 -8 60 -6 75 3 5 4 13 2 16 -4 4
-7 11 -8 18 -2 7 5 21 6 32 2 11 -4 30 -4 43 1 14 5 22 5 22 -2 0 -6 6 -6 18
0 13 7 22 7 29 0 8 -8 13 -8 17 0 4 7 15 7 30 1 13 -5 26 -7 29 -4 8 9 88 10
93 2 3 -5 14 -4 24 2 13 7 21 7 25 0 4 -6 11 -7 17 -4 16 10 69 11 75 1 2 -4
13 -3 23 3 13 7 21 7 25 0 4 -6 13 -7 23 -1 11 6 24 6 34 0 10 -6 19 -6 23 0
3 6 15 7 28 2 12 -5 34 -5 49 0 16 4 28 4 28 -1 0 -6 10 -6 22 -1 13 4 34 5
48 1 14 -4 35 -3 47 1 14 5 23 5 23 -1 0 -6 9 -6 24 0 15 5 27 5 34 -2 7 -7
16 -6 30 1 15 8 23 8 27 1 4 -7 11 -7 18 -2 7 5 21 6 32 2 11 -4 30 -4 43 1
14 5 22 5 22 -2 0 -6 6 -6 18 0 13 7 22 7 29 0 8 -8 13 -8 17 0 4 7 15 7 30 1
13 -5 26 -7 29 -4 8 9 88 10 93 2 3 -5 13 -4 22 1 11 6 24 6 35 0 11 -7 17 -7
17 0 0 7 8 7 25 1 15 -6 25 -6 25 0 0 5 12 5 28 1 15 -4 39 -4 55 0 15 4 27 3
27 -2 0 -5 10 -5 23 0 14 5 30 5 40 0 11 -7 17 -6 17 0 0 7 8 7 25 1 15 -6 25
-6 25 0 0 5 12 5 28 1 15 -4 39 -4 55 0 15 4 27 3 27 -1 0 -5 13 -5 30 0 16 5
32 5 34 1 6 -8 60 -6 75 3 5 4 13 2 16 -4 4 -7 11 -8 18 -2 7 5 21 6 32 2 11
-4 30 -4 43 1 14 5 22 5 22 -2 0 -6 6 -6 18 0 13 7 22 7 29 0 8 -8 13 -8 17 0
4 7 15 7 30 1 13 -5 26 -7 29 -4 8 9 88 10 93 2 3 -5 14 -4 24 2 13 7 21 7 25
0 4 -6 11 -7 17 -4 16 10 69 11 75 1 2 -4 13 -3 23 3 13 7 21 7 25 0 4 -6 13
-7 23 -1 11 6 24 6 34 0 10 -6 19 -6 23 0 3 6 15 7 28 2 12 -5 34 -5 49 0 16
4 28 4 28 -1 0 -6 10 -6 23 -1 12 4 33 5 47 1 14 -4 35 -3 48 1 13 5 22 5 22
-1 0 -6 9 -6 24 0 15 5 27 5 34 -2 7 -7 16 -6 30 1 15 8 23 8 27 1 4 -7 11 -7
18 -2 7 5 21 6 32 2 11 -4 30 -4 42 1 15 5 23 5 23 -2 0 -6 6 -6 18 0 13 7 22
7 29 0 8 -8 13 -8 17 0 4 7 15 7 30 1 13 -5 26 -7 29 -4 8 9 88 10 93 2 3 -5
13 -4 22 1 11 6 24 6 35 0 11 -7 17 -7 17 0 0 7 8 7 25 1 15 -6 25 -6 25 0 0
5 12 5 28 1 15 -4 39 -4 55 0 15 4 27 3 27 -2 0 -5 10 -5 23 0 14 5 30 5 40 0
11 -7 17 -6 17 0 0 7 8 7 25 1 15 -6 25 -6 25 0 0 5 12 5 28 1 15 -4 39 -4 55
0 15 4 27 3 27 -1 0 -5 13 -5 30 0 16 5 32 5 34 1 6 -8 60 -6 75 3 5 4 13 2
16 -4 4 -7 11 -8 18 -2 7 5 21 6 32 2 11 -4 30 -4 42 1 15 5 23 5 23 -2 0 -6
6 -6 18 0 13 7 22 7 29 0 8 -8 13 -8 17 0 4 7 15 7 30 1 13 -5 26 -7 29 -4 8
9 88 10 93 2 3 -5 14 -4 24 2 13 7 21 7 25 0 4 -6 11 -7 17 -4 16 10 69 11 75
1 2 -4 13 -3 23 3 13 7 21 7 25 0 4 -6 13 -7 23 -1 11 6 24 6 34 0 10 -6 19
-6 23 0 3 6 15 7 28 2 12 -5 34 -5 49 0 16 4 28 4 28 -1 0 -6 10 -6 23 -1 12
4 33 5 47 1 14 -4 35 -3 48 1 13 5 22 5 22 -1 0 -6 9 -6 24 0 15 5 27 5 34 -2
7 -7 16 -6 30 1 15 8 23 8 27 1 4 -7 11 -7 18 -2 7 5 21 6 32 2 11 -4 30 -4
43 1 14 5 22 5 22 -2 0 -6 6 -6 18 0 13 7 22 7 29 0 8 -8 13 -8 17 0 4 7 15 7
30 1 13 -5 26 -7 29 -4 8 9 88 10 93 2 3 -5 13 -4 22 1 11 6 24 6 35 0 11 -7
17 -7 17 0 0 7 8 7 25 1 15 -6 25 -6 25 0 0 5 12 5 28 1 15 -4 39 -4 55 0 15
4 27 3 27 -2 0 -5 10 -5 23 0 14 5 30 5 40 0 11 -7 17 -6 17 0 0 7 8 7 25 1
15 -6 25 -6 25 0 0 5 12 5 28 1 15 -4 39 -4 55 0 15 4 27 3 27 -1 0 -5 13 -5
30 0 16 5 32 5 34 1 6 -8 60 -6 75 3 5 4 13 2 16 -4 4 -7 11 -8 18 -2 7 5 21
6 32 2 11 -4 30 -4 43 1 14 5 22 5 22 -2 0 -6 6 -6 18 0 13 7 22 7 29 0 8 -8
13 -8 17 0 4 7 15 7 30 1 13 -5 26 -7 29 -4 8 9 88 10 93 2 3 -5 14 -4 24 2
13 7 21 7 25 0 4 -6 11 -7 17 -4 16 10 69 11 75 1 2 -4 13 -3 23 3 13 7 21 7
25 0 4 -6 13 -7 23 -1 11 6 24 6 34 0 10 -6 19 -6 23 0 3 6 15 7 28 2 12 -5
34 -5 49 0 16 4 28 4 28 -1 0 -6 10 -6 23 -1 12 4 33 5 47 1 14 -4 35 -3 48 1
13 5 22 5 22 -1 0 -6 9 -6 24 0 15 5 27 5 34 -2 7 -7 16 -6 30 1 15 8 23 8 27
1 4 -7 11 -7 18 -2 7 5 21 6 32 2 11 -4 30 -4 43 1 14 5 22 5 22 -2 0 -6 6 -6
18 0 13 7 22 7 29 0 8 -8 13 -8 17 0 4 7 15 7 30 1 13 -5 26 -7 29 -4 8 9 88
10 93 2 3 -5 13 -4 22 1 11 6 24 6 35 0 11 -7 17 -7 17 0 0 7 8 7 25 1 15 -6
25 -6 25 0 0 5 12 5 28 1 15 -4 39 -4 55 0 15 4 27 3 27 -2 0 -5 10 -5 23 0
14 5 30 5 40 0 11 -7 17 -6 17 0 0 7 8 7 25 1 15 -6 25 -6 25 0 0 5 12 5 27 1
16 -4 40 -4 56 0 15 4 27 3 27 -1 0 -5 13 -5 30 0 16 5 32 5 34 1 6 -8 60 -6
75 3 5 4 13 2 16 -4 4 -7 11 -8 18 -2 7 5 21 6 32 2 11 -4 30 -4 43 1 14 5 22
5 22 -2 0 -6 6 -6 18 0 13 7 22 7 29 0 8 -8 13 -8 17 0 4 7 15 7 30 1 13 -5
26 -7 29 -4 8 9 88 10 93 2 3 -5 14 -4 24 2 13 7 21 7 25 0 4 -6 11 -7 17 -4
16 10 69 11 75 1 2 -4 13 -3 23 3 13 7 21 7 25 0 4 -6 13 -7 23 -1 11 6 24 6
34 0 10 -6 19 -6 23 0 3 6 15 7 28 2 12 -5 34 -5 49 0 16 4 28 4 28 -1 0 -6
10 -6 23 -1 12 4 33 5 47 1 14 -4 35 -3 47 1 14 5 23 5 23 -1 0 -6 9 -6 25 0
14 5 27 5 30 0 3 -5 18 -5 35 0 18 5 32 5 35 -1 4 -5 14 -5 25 1 13 7 21 7 25
0 4 -6 11 -7 17 -4 16 10 69 11 75 1 2 -4 13 -3 23 3 13 7 21 7 25 0 4 -6 13
-7 23 -1 11 6 24 6 34 0 10 -6 19 -6 23 0 3 6 15 7 28 2 12 -5 34 -5 49 0 16
4 28 4 28 -1 0 -6 10 -6 23 -1 12 4 33 5 47 1 14 -4 35 -3 48 1 13 5 22 5 22
-1 0 -6 9 -6 24 0 15 5 27 5 34 -2 7 -7 16 -6 30 1 15 8 23 8 27 1 4 -7 11 -7
18 -2 7 5 21 6 32 2 11 -4 30 -4 43 1 14 5 22 5 22 -2 0 -6 6 -6 18 0 13 7 22
7 29 0 8 -8 13 -8 17 0 4 7 15 7 30 1 13 -5 26 -7 29 -4 8 9 88 10 93 2 3 -5
13 -4 22 1 11 6 24 6 35 0 11 -7 17 -7 17 0 0 7 8 7 25 1 15 -6 25 -6 25 0 0
5 12 5 28 1 15 -4 39 -4 55 0 15 4 27 4 27 -1 0 -4 18 -4 40 0 23 4 40 3 40
-2 0 -5 5 -6 11 -3 5 4 31 9 57 11 84 7 243 38 267 53 6 3 12 6 15 6 9 2 55
16 75 25 291 120 527 338 673 623 22 42 38 77 36 77 -2 0 6 21 16 46 11 25 22
55 24 67 3 12 11 49 20 82 9 33 20 89 25 125 12 80 9 6093 -2 6130 -5 14 -10
36 -11 51 -4 36 -48 182 -58 194 -4 5 -8 19 -8 32 0 13 -4 23 -10 23 -5 0 -10
6 -10 14 0 34 -123 235 -190 311 -61 69 -203 205 -214 205 -2 0 -34 20 -72 46
-61 40 -200 112 -229 119 -5 1 -18 5 -27 8 -10 4 -26 10 -35 14 -10 3 -22 7
-28 8 -5 2 -37 10 -70 18 -61 16 -101 23 -190 33 -48 5 -61 5 -133 1 -19 -1
-36 1 -38 5 -3 5 -14 4 -24 -2 -13 -7 -21 -7 -25 0 -4 6 -11 7 -17 4 -16 -10
-69 -11 -75 -1 -2 4 -13 3 -23 -3 -13 -7 -21 -7 -25 0 -4 6 -13 7 -23 1 -11
-6 -24 -6 -34 0 -10 6 -19 6 -23 0 -3 -6 -15 -7 -28 -2 -12 5 -34 5 -49 0 -16
-4 -28 -4 -28 1 0 6 -10 6 -22 1 -13 -4 -34 -5 -48 -1 -14 4 -35 3 -47 -1 -14
-5 -23 -5 -23 1 0 6 -9 6 -24 0 -15 -5 -27 -5 -34 2 -7 7 -16 6 -30 -1 -15 -8
-23 -8 -27 -1 -4 7 -11 7 -18 2 -7 -5 -21 -6 -32 -2 -11 4 -30 4 -42 -1 -15
-5 -23 -5 -23 2 0 6 -6 6 -18 0 -13 -7 -22 -7 -29 0 -8 8 -13 8 -17 0 -4 -7
-15 -7 -30 -1 -13 5 -26 7 -29 4 -8 -9 -88 -10 -93 -2 -3 5 -13 4 -22 -1 -11
-6 -24 -6 -35 0 -11 7 -17 7 -17 0 0 -7 -8 -7 -25 -1 -15 6 -25 6 -25 0 0 -5
-12 -5 -27 -1 -16 4 -40 4 -55 0 -16 -4 -28 -3 -28 2 0 5 -10 5 -23 0 -14 -5
-30 -5 -40 0 -11 7 -17 6 -17 0 0 -7 -8 -7 -25 -1 -15 6 -25 6 -25 0 0 -5 -12
-5 -28 -1 -15 4 -39 4 -54 0 -16 -4 -28 -3 -28 1 0 5 -13 5 -30 0 -16 -5 -32
-5 -34 -1 -6 8 -60 6 -75 -3 -5 -4 -13 -2 -16 4 -4 7 -11 8 -18 2 -7 -5 -21
-6 -32 -2 -11 4 -30 4 -42 -1 -15 -5 -23 -5 -23 2 0 6 -6 6 -18 0 -13 -7 -22
-7 -29 0 -8 8 -13 8 -17 0 -4 -7 -15 -7 -30 -1 -13 5 -26 7 -29 4 -8 -9 -88
-10 -93 -2 -3 5 -14 4 -24 -2 -13 -7 -21 -7 -25 0 -4 6 -11 7 -17 4 -16 -10
-69 -11 -75 -1 -2 4 -13 3 -23 -3 -13 -7 -21 -7 -25 0 -4 6 -13 7 -23 1 -11
-6 -24 -6 -34 0 -10 6 -19 6 -23 0 -3 -6 -15 -7 -28 -2 -12 5 -34 5 -49 0 -16
-4 -28 -4 -28 1 0 6 -10 6 -22 1 -13 -4 -34 -5 -48 -1 -14 4 -35 3 -47 -1 -14
-5 -23 -5 -23 1 0 6 -9 6 -24 0 -15 -5 -27 -5 -34 2 -7 7 -16 6 -30 -1 -15 -8
-23 -8 -27 -1 -4 7 -11 7 -18 2 -7 -5 -21 -6 -32 -2 -11 4 -30 4 -42 -1 -15
-5 -23 -5 -23 2 0 6 -6 6 -18 0 -13 -7 -22 -7 -29 0 -8 8 -13 8 -17 0 -4 -7
-15 -7 -30 -1 -13 5 -26 7 -29 4 -8 -9 -88 -10 -93 -2 -3 5 -13 4 -22 -1 -11
-6 -24 -6 -35 0 -11 7 -17 7 -17 0 0 -7 -8 -7 -25 -1 -15 6 -25 6 -25 0 0 -5
-12 -5 -27 -1 -16 4 -40 4 -55 0 -16 -4 -28 -3 -28 2 0 5 -10 5 -23 0 -14 -5
-30 -5 -40 0 -11 7 -17 6 -17 0 0 -7 -8 -7 -25 -1 -15 6 -25 6 -25 0 0 -5 -12
-5 -27 -1 -16 4 -40 4 -55 0 -16 -4 -28 -3 -28 1 0 5 -13 5 -30 0 -16 -5 -32
-5 -34 -1 -6 8 -60 6 -75 -3 -5 -4 -13 -2 -16 4 -4 7 -11 8 -18 2 -7 -5 -21
-6 -32 -2 -11 4 -30 4 -42 -1 -15 -5 -23 -5 -23 2 0 6 -6 6 -18 0 -13 -7 -22
-7 -29 0 -8 8 -13 8 -17 0 -4 -7 -15 -7 -30 -1 -13 5 -26 7 -29 4 -9 -9 -62
-11 -84 -2 -14 4 -23 4 -23 -2 0 -5 -6 -7 -13 -4 -23 8 -98 10 -103 2 -3 -4
-16 -3 -29 2 -15 6 -25 6 -25 0 0 -5 -12 -5 -27 -1 -16 4 -40 4 -55 0 -16 -4
-30 -3 -34 2 -3 5 -13 5 -24 -1 -13 -7 -21 -7 -25 0 -4 6 -13 7 -23 1 -11 -6
-24 -6 -35 0 -11 7 -17 7 -17 0 0 -6 -11 -7 -27 -2 -16 4 -40 4 -55 0 -16 -4
-30 -4 -33 1 -3 4 -20 5 -38 0 -18 -4 -43 -3 -55 1 -13 5 -22 4 -22 -1 0 -5
-6 -7 -13 -4 -23 8 -98 10 -103 2 -3 -4 -16 -3 -29 2 -15 6 -25 6 -25 0 0 -5
-12 -5 -27 -1 -16 4 -40 4 -55 0 -16 -4 -30 -3 -34 2 -3 5 -13 5 -24 -1 -13
-7 -21 -7 -25 0 -4 6 -13 7 -23 1 -11 -6 -24 -6 -35 0 -11 7 -17 7 -17 0 0 -6
-11 -7 -27 -2 -16 4 -40 4 -55 0 -16 -4 -30 -4 -33 1 -3 4 -20 5 -38 0 -18 -4
-43 -3 -55 1 -13 5 -22 4 -22 -1 0 -5 -6 -7 -13 -4 -23 8 -98 10 -103 2 -3 -4
-16 -3 -29 2 -15 6 -25 6 -25 0 0 -5 -12 -5 -27 -1 -16 4 -40 4 -55 0 -16 -4
-30 -3 -34 2 -3 5 -13 5 -24 -1 -13 -7 -21 -7 -25 0 -4 6 -13 7 -23 1 -11 -6
-24 -6 -35 0 -11 7 -17 7 -17 0 0 -6 -11 -7 -27 -2 -16 4 -40 4 -55 0 -16 -4
-30 -4 -33 1 -3 4 -20 5 -38 0 -18 -4 -43 -3 -55 1 -13 5 -22 4 -22 -1 0 -5
-6 -7 -13 -4 -23 8 -98 10 -103 2 -3 -4 -16 -3 -29 2 -15 6 -25 6 -25 0 0 -5
-12 -5 -27 -1 -16 4 -40 4 -55 0 -16 -4 -30 -3 -34 2 -3 5 -13 5 -24 -1 -13
-7 -21 -7 -25 0 -4 6 -13 7 -23 1 -11 -6 -24 -6 -35 0 -11 7 -17 7 -17 0 0 -6
-11 -7 -27 -2 -16 4 -40 4 -55 0 -16 -4 -30 -4 -32 0 -6 8 -60 6 -75 -3 -5 -4
-13 -2 -16 4 -4 7 -11 8 -18 2 -7 -5 -21 -6 -32 -2 -11 4 -30 4 -42 -1 -15 -5
-23 -5 -23 2 0 6 -6 6 -18 0 -13 -7 -22 -7 -29 0 -8 8 -13 8 -17 0 -4 -7 -15
-7 -30 -1 -13 5 -26 7 -29 4 -8 -9 -88 -10 -93 -2 -3 5 -13 4 -22 -1 -11 -6
-24 -6 -35 0 -11 7 -17 7 -17 0 0 -7 -8 -7 -25 -1 -15 6 -25 6 -25 0 0 -5 -12
-5 -27 -1 -16 4 -40 4 -55 0 -16 -4 -28 -3 -28 2 0 5 -10 5 -23 0 -14 -5 -30
-5 -40 0 -11 7 -17 6 -17 0 0 -7 -8 -7 -25 -1 -15 6 -25 6 -25 0 0 -5 -12 -5
-28 -1 -15 4 -39 4 -54 0 -16 -4 -28 -3 -28 1 0 5 -13 5 -30 0 -16 -5 -32 -5
-34 -1 -6 8 -60 6 -75 -3 -5 -4 -13 -2 -16 4 -4 7 -11 8 -18 2 -7 -5 -21 -6
-32 -2 -11 4 -30 4 -42 -1 -15 -5 -23 -5 -23 2 0 6 -6 6 -18 0 -13 -7 -22 -7
-29 0 -8 8 -13 8 -17 0 -4 -7 -15 -7 -30 -1 -13 5 -26 7 -29 4 -8 -9 -88 -10
-93 -2 -3 5 -14 4 -24 -2 -13 -7 -21 -7 -25 0 -4 6 -11 7 -17 4 -16 -10 -69
-11 -75 -1 -2 4 -13 3 -23 -3 -13 -7 -21 -7 -25 0 -4 6 -13 7 -23 1 -11 -6
-24 -6 -34 0 -10 6 -19 6 -23 0 -3 -6 -15 -7 -28 -2 -12 5 -34 5 -49 0 -16 -4
-28 -4 -28 1 0 6 -10 6 -22 1 -13 -4 -34 -5 -48 -1 -14 4 -35 3 -47 -1 -14 -5
-23 -5 -23 1 0 6 -9 6 -24 0 -15 -5 -27 -5 -34 2 -7 7 -16 6 -30 -1 -15 -8
-23 -8 -27 -1 -4 7 -11 7 -18 2 -7 -5 -21 -6 -32 -2 -11 4 -30 4 -42 -1 -15
-5 -23 -5 -23 2 0 6 -6 6 -18 0 -13 -7 -22 -7 -29 0 -8 8 -13 8 -17 0 -4 -7
-15 -7 -30 -1 -13 5 -26 7 -29 4 -8 -9 -88 -10 -93 -2 -3 5 -13 4 -22 -1 -11
-6 -24 -6 -35 0 -11 7 -17 7 -17 0 0 -7 -8 -7 -25 -1 -15 6 -25 6 -25 0 0 -5
-12 -5 -27 -1 -16 4 -40 4 -55 0 -16 -4 -28 -3 -28 2 0 5 -10 5 -23 0 -14 -5
-30 -5 -40 0 -11 7 -17 6 -17 0 0 -7 -8 -7 -25 -1 -15 6 -25 6 -25 0 0 -5 -12
-5 -27 -1 -16 4 -40 4 -55 0 -16 -4 -28 -3 -28 1 0 5 -13 5 -30 0 -16 -5 -32
-5 -34 -1 -6 8 -60 6 -75 -3 -5 -4 -13 -2 -16 4 -4 7 -11 8 -18 2 -7 -5 -21
-6 -32 -2 -11 4 -30 4 -42 -1 -15 -5 -23 -5 -23 2 0 6 -6 6 -18 0 -13 -7 -22
-7 -29 0 -8 8 -13 8 -17 0 -4 -7 -15 -7 -30 -1 -13 5 -26 7 -29 4 -8 -9 -88
-10 -93 -2 -3 5 -14 4 -24 -2 -13 -7 -21 -7 -25 0 -4 6 -11 7 -17 4 -16 -10
-69 -11 -75 -1 -2 4 -13 3 -23 -3 -13 -7 -21 -7 -25 0 -4 6 -13 7 -23 1 -11
-6 -24 -6 -34 0 -10 6 -19 6 -23 0 -3 -6 -15 -7 -28 -2 -12 5 -34 5 -49 0 -16
-4 -28 -4 -28 1 0 6 -10 6 -22 1 -13 -4 -34 -5 -48 -1 -14 4 -35 3 -47 -1 -14
-5 -23 -5 -23 1 0 6 -9 6 -24 0 -13 -5 -27 -6 -30 -2 -9 8 -33 11 -40 4z m952
-1922 c194 2 181 2 207 0 11 -1 63 -1 115 -1 52 0 102 0 110 -1 8 0 29 1 45 2
17 1 62 2 100 1 39 0 77 0 85 0 137 4 516 -24 645 -47 17 -3 42 -7 57 -9 117
-15 332 -104 418 -173 85 -68 220 -222 220 -252 0 -5 5 -10 10 -10 6 0 10 -5
10 -11 0 -6 9 -23 19 -37 63 -89 121 -248 137 -372 29 -234 36 -397 49 -1115
2 -104 4 -190 5 -190 6 0 4 -58 -3 -62 -4 -2 -4 -10 1 -16 5 -7 8 -191 7 -427
-3 -390 -6 -482 -21 -605 -3 -27 -7 -63 -9 -80 -6 -55 -46 -239 -54 -250 -5
-5 -11 -23 -15 -40 -17 -69 -131 -271 -183 -323 -7 -7 -13 -17 -13 -22 0 -16
-157 -167 -215 -207 -53 -35 -120 -75 -135 -78 -3 -1 -18 -7 -35 -14 -49 -21
-128 -48 -160 -57 -16 -4 -34 -8 -40 -10 -5 -1 -35 -7 -65 -13 -30 -6 -68 -13
-85 -16 -43 -9 -110 -17 -255 -30 -36 -3 -416 -17 -455 -16 -5 0 -59 0 -120 0
-60 0 -119 0 -130 0 -11 0 -94 0 -185 0 -91 0 -172 0 -180 0 -54 2 -141 1
-152 -1 -7 -2 -13 4 -13 12 0 8 -4 20 -8 27 -4 6 -3 14 2 18 6 3 8 12 5 20 -9
22 -10 195 -2 195 4 0 3 11 -2 25 -6 16 -6 25 1 25 6 0 6 7 -1 19 -6 13 -7 22
0 26 5 3 6 15 1 28 -5 13 -5 30 0 39 6 11 5 19 -1 23 -7 4 -7 12 0 25 7 13 7
21 0 25 -6 4 -7 12 -1 23 5 9 5 26 0 39 -5 13 -4 25 1 28 7 4 6 13 0 26 -7 12
-7 19 -1 19 7 0 7 9 1 25 -6 16 -6 25 0 25 6 0 6 9 0 25 -6 16 -6 25 1 25 6 0
6 7 -1 19 -6 13 -7 22 0 26 6 4 6 15 0 30 -6 15 -6 25 0 25 5 0 5 12 0 30 -5
18 -5 32 1 35 5 4 5 13 0 24 -6 10 -6 23 -1 31 5 8 5 21 -1 31 -5 11 -5 20 0
24 6 3 6 17 1 35 -5 18 -5 30 0 30 6 0 6 10 0 25 -6 15 -6 26 0 30 7 4 6 13 0
26 -7 12 -7 19 -1 19 7 0 7 9 1 25 -6 16 -6 25 0 25 6 0 6 9 0 25 -6 16 -6 25
1 25 6 0 6 7 -1 19 -6 13 -7 22 0 26 5 3 6 15 1 28 -5 13 -5 30 0 39 6 11 5
19 -1 23 -7 4 -7 12 0 25 7 13 7 21 0 25 -6 4 -7 12 -1 23 5 9 5 26 0 39 -5
13 -4 25 1 28 6 4 7 13 1 24 -6 10 -6 23 -1 31 5 9 5 19 -1 26 -7 8 -6 14 1
19 6 3 8 11 4 16 -8 13 -9 192 -1 205 3 5 2 16 -3 24 -5 9 -5 19 1 26 7 8 6
14 -1 19 -6 4 -7 12 -1 24 6 10 6 23 1 31 -5 8 -5 21 1 31 6 11 5 20 -1 24 -6
4 -6 15 0 30 6 15 6 25 0 25 -5 0 -5 12 0 30 5 19 5 32 -2 36 -6 4 -6 10 1 17
7 7 7 16 0 29 -6 12 -6 25 1 38 8 14 8 20 0 20 -8 0 -8 6 0 20 8 14 8 20 0 20
-8 0 -8 6 0 20 8 14 8 20 0 20 -8 0 -8 6 0 20 8 14 8 20 0 20 -8 0 -8 6 0 20
8 14 8 20 0 20 -8 0 -8 6 0 20 8 14 8 20 0 20 -8 0 -8 6 0 20 8 14 8 20 0 20
-8 0 -8 6 0 20 8 14 8 20 0 20 -8 0 -8 6 0 20 8 14 8 20 0 20 -8 0 -8 6 0 20
8 14 8 20 0 20 -8 0 -8 6 0 20 8 14 8 20 0 20 -8 0 -8 6 0 20 8 14 8 20 0 20
-8 0 -8 6 0 20 8 14 8 20 0 20 -8 0 -8 6 0 20 8 14 8 20 0 20 -8 0 -8 6 0 20
8 14 8 20 0 20 -7 0 -8 6 -1 18 13 25 13 25 2 55 -6 16 -7 27 -1 27 6 0 6 9 0
25 -6 15 -6 26 1 30 6 4 6 13 0 23 -6 10 -6 23 0 34 7 12 6 18 -1 18 -7 0 -8
6 -1 18 6 11 6 24 0 34 -6 11 -6 19 1 23 7 4 7 12 0 25 -7 13 -7 21 0 25 7 4
7 12 0 25 -6 11 -6 21 -1 25 6 3 6 17 1 35 -5 18 -5 32 1 35 5 4 5 14 -1 25
-7 13 -7 21 0 25 7 4 7 12 0 25 -7 13 -7 21 0 25 6 4 7 13 1 23 -6 11 -6 24 0
35 7 11 7 17 0 17 -6 0 -6 11 -1 30 5 19 5 30 -1 30 -7 0 -7 6 0 17 6 11 6 24
0 35 -6 10 -5 19 1 23 7 4 7 12 0 25 -7 13 -7 21 0 25 7 4 7 12 0 25 -6 11 -6
21 -1 25 6 3 6 17 1 35 -5 18 -5 32 1 35 5 4 5 14 -1 25 -7 13 -7 21 0 25 7 4
7 12 0 25 -7 13 -7 21 0 25 7 4 7 12 1 23 -6 10 -6 23 0 34 7 12 6 18 -1 18
-7 0 -8 6 -1 17 6 11 6 24 0 35 -6 10 -5 19 1 23 6 4 6 15 0 30 -6 16 -6 25 0
25 6 0 6 9 1 23 -11 29 -11 38 0 60 7 11 6 17 -1 17 -8 0 -8 6 0 20 8 14 8 20
0 20 -8 0 -8 6 0 20 8 14 8 20 0 20 -7 0 -8 6 0 19 7 14 7 22 -1 27 -7 4 -8 9
0 17 7 7 7 16 0 29 -6 12 -6 18 0 18 7 0 7 8 2 23 -15 41 1 61 55 67 27 3 53
4 57 2 4 -2 83 -3 175 -2z m3744 -5 c3 3 77 5 164 5 87 0 209 0 269 1 61 1
117 1 125 0 8 0 89 0 180 0 91 0 172 0 180 0 21 -1 141 0 149 1 3 0 27 0 52
-1 l45 -1 0 -195 c-1 -124 3 -195 9 -195 7 0 6 -3 0 -8 -6 -4 -10 -77 -10
-189 l1 -182 -691 0 c-379 0 -702 -1 -716 -1 l-25 0 1 -135 c0 -86 -3 -135
-10 -135 -7 0 -7 -3 0 -8 14 -10 14 -464 0 -474 -7 -5 -7 -8 0 -8 6 0 10 -50
9 -132 0 -73 1 -138 3 -144 3 -8 124 -12 426 -12 232 0 431 -1 442 -1 20 -1
20 -8 19 -376 -1 -207 -3 -377 -6 -380 -4 -4 -69 -9 -248 -20 -208 -12 -263
-15 -395 -20 -201 -9 -200 -9 -205 -16 -4 -6 -5 -1022 -1 -1039 0 -3 40 -5 87
-5 47 0 91 -3 97 -7 6 -3 21 -2 34 3 12 5 23 5 23 1 0 -4 78 -8 173 -8 94 -1
242 -5 327 -8 85 -4 227 -9 315 -12 303 -10 322 -11 332 -17 5 -3 9 -78 9
-176 -1 -108 3 -171 9 -171 6 0 6 -3 0 -8 -12 -8 -14 -290 -2 -309 4 -6 3 -14
-2 -17 -5 -3 -7 -22 -5 -41 l3 -35 -92 -1 c-51 -1 -96 0 -102 1 -5 1 -84 1
-175 0 -190 -2 -179 -2 -205 1 -11 1 -49 1 -85 0 -36 0 -72 0 -80 0 -8 1 -44
1 -80 0 -36 0 -72 0 -80 0 -8 0 -78 0 -155 -1 -77 0 -142 -1 -145 0 -3 0 -104
3 -225 5 -223 5 -290 9 -335 19 -14 4 -38 9 -54 11 -78 15 -165 87 -375 310
-4 5 -3 2642 2 3057 1 120 6 218 10 218 4 0 3 9 -3 20 -6 11 -7 20 -3 20 4 0
9 48 11 108 2 94 8 177 12 177 0 0 2 20 4 45 2 25 9 70 15 100 15 63 70 190
82 190 5 0 9 5 9 10 0 11 39 57 85 101 28 27 73 46 150 64 47 12 84 14 349 19
137 3 251 8 254 11 2 2 12 0 22 -5 10 -5 20 -7 22 -5z m1918 2 c0 -5 4 -6 10
-2 11 7 164 7 407 1 130 -3 176 -8 186 -18 12 -12 39 -104 51 -173 2 -11 9
-32 15 -47 6 -16 8 -28 6 -28 -2 0 0 -12 6 -26 5 -15 12 -43 15 -63 3 -20 8
-43 11 -51 3 -8 9 -31 13 -50 5 -19 20 -80 35 -135 14 -55 28 -111 31 -125 3
-14 9 -38 14 -55 5 -16 12 -41 14 -55 3 -14 22 -88 41 -165 20 -77 38 -147 40
-155 2 -8 20 -80 40 -160 21 -80 39 -152 40 -160 2 -8 4 -15 5 -15 1 0 3 -9 5
-20 3 -11 18 -74 35 -140 17 -66 33 -127 35 -135 2 -8 20 -78 40 -155 20 -77
38 -151 41 -165 3 -14 14 -56 25 -95 12 -38 22 -79 24 -90 1 -11 3 -20 4 -20
2 0 4 -9 6 -20 2 -11 16 -65 31 -120 14 -55 30 -116 34 -135 4 -19 18 -71 30
-115 13 -44 26 -96 30 -115 28 -124 43 -124 91 -5 20 50 34 93 32 98 -2 4 1 7
7 7 7 0 10 7 6 15 -3 8 -2 15 3 15 4 0 8 6 8 13 0 10 74 264 119 412 9 27 17
58 19 70 1 11 5 27 8 35 11 26 141 525 138 525 -1 0 6 24 15 54 9 30 18 63 20
73 4 17 9 38 18 76 3 9 9 32 15 50 5 17 8 32 5 32 -3 0 0 8 5 18 5 9 12 31 15
47 3 17 10 48 16 70 12 44 18 70 24 100 3 11 14 56 26 100 12 44 23 92 25 107
2 15 6 32 10 38 3 5 8 20 11 32 8 40 13 61 39 158 14 52 27 109 30 125 3 17
12 51 20 78 8 26 12 47 9 47 -3 0 -2 6 3 13 4 6 8 17 9 22 1 6 9 37 17 70 9
33 18 71 21 85 3 14 12 49 20 78 8 28 12 52 10 52 -3 0 -2 6 3 13 4 6 8 18 9
25 4 21 9 24 56 28 24 2 68 6 98 9 30 2 89 8 130 12 136 12 525 8 566 -6 18
-7 5 -86 -47 -285 -12 -44 -23 -91 -25 -105 -3 -14 -7 -33 -10 -41 -3 -8 -8
-24 -10 -35 -2 -11 -15 -63 -29 -115 -24 -93 -27 -105 -40 -165 -3 -16 -13
-53 -21 -81 -8 -28 -17 -60 -19 -70 -4 -19 -71 -285 -79 -314 -2 -8 -25 -98
-51 -200 -25 -102 -50 -196 -55 -210 -5 -14 -11 -36 -14 -50 -2 -14 -7 -32
-10 -40 -3 -8 -8 -26 -10 -40 -3 -14 -12 -52 -21 -85 -10 -33 -19 -69 -21 -80
-2 -11 -15 -63 -29 -115 -15 -52 -28 -102 -29 -110 -2 -8 -6 -22 -9 -30 -5
-15 -18 -62 -23 -90 -2 -9 -15 -58 -29 -110 -14 -52 -28 -106 -31 -120 -3 -14
-16 -63 -29 -110 -24 -85 -83 -309 -90 -343 -2 -9 -6 -21 -9 -25 -3 -5 -8 -22
-11 -38 -8 -39 -13 -59 -15 -59 -1 0 -3 -7 -5 -15 -1 -8 -10 -42 -19 -75 -17
-60 -20 -73 -32 -130 -3 -16 -9 -34 -12 -40 -4 -5 -7 -14 -8 -20 -2 -11 -36
-137 -59 -220 -8 -27 -29 -99 -46 -160 -17 -60 -32 -114 -34 -120 -1 -5 -5
-17 -8 -25 -3 -8 -11 -33 -17 -55 -12 -37 -26 -73 -53 -135 -64 -142 -249
-312 -402 -370 -76 -28 -173 -33 -234 -11 -55 20 -151 73 -151 84 0 4 -4 7
-10 7 -18 0 -160 134 -207 196 -56 73 -73 99 -73 108 0 5 -7 17 -16 27 -8 9
-16 24 -18 32 -1 8 -7 21 -12 28 -6 8 -16 28 -22 44 -6 17 -25 68 -42 115 -18
47 -38 105 -45 130 -29 100 -56 198 -70 245 -26 94 -57 210 -60 225 -2 8 -4
15 -5 15 -2 0 -3 6 -13 55 -3 14 -18 70 -32 125 -15 55 -28 107 -30 115 -2 8
-17 69 -35 135 -18 66 -36 136 -40 155 -5 19 -18 71 -30 115 -11 44 -25 95
-29 113 -5 17 -6 32 -2 32 3 0 1 4 -4 8 -9 6 -55 172 -71 252 -3 14 -10 41
-16 60 -7 19 -13 40 -14 45 -1 6 -7 30 -14 55 -6 25 -15 61 -20 80 -4 19 -24
96 -44 170 -20 74 -39 144 -41 155 -2 11 -33 139 -70 285 -37 146 -69 274 -71
285 -2 11 -24 97 -49 190 -26 94 -48 177 -50 185 -2 8 -13 51 -25 95 -12 44
-26 96 -30 115 -4 19 -18 71 -29 115 -43 159 -62 230 -67 247 -4 14 3 17 38
20 84 6 218 3 218 -5z"/>
<path d="M2755 7870 l-80 -5 3 -270 c1 -148 2 -294 2 -322 -1 -65 -1 -5 4
-498 3 -231 8 -638 11 -905 4 -267 8 -576 9 -687 1 -111 5 -205 9 -209 4 -4
49 -7 100 -5 50 1 160 3 242 5 198 5 336 39 413 103 12 10 29 25 39 33 38 32
81 98 101 155 30 84 38 142 46 323 3 56 7 106 9 110 2 4 3 342 2 752 -2 659
-6 883 -20 994 -8 60 -38 176 -46 176 -5 0 -9 7 -9 15 0 22 -117 135 -140 135
-6 0 -10 4 -10 8 0 13 -153 69 -212 77 -95 14 -356 22 -473 15z"/>
</g>
</svg>
